<?xml version="1.0" encoding="utf-8" standalone="no"?>
<!DOCTYPE svg PUBLIC "-//W3C//DTD SVG 1.1//EN"
  "http://www.w3.org/Graphics/SVG/1.1/DTD/svg11.dtd">
<svg xmlns:xlink="http://www.w3.org/1999/xlink" width="610.005937pt" height="351.381562pt" viewBox="0 0 610.005937 351.381562" xmlns="http://www.w3.org/2000/svg" version="1.1">
 <metadata>
  <rdf:RDF xmlns:dc="http://purl.org/dc/elements/1.1/" xmlns:cc="http://creativecommons.org/ns#" xmlns:rdf="http://www.w3.org/1999/02/22-rdf-syntax-ns#">
   <cc:Work>
    <dc:type rdf:resource="http://purl.org/dc/dcmitype/StillImage"/>
    <dc:date>2023-07-08T22:40:32.085209</dc:date>
    <dc:format>image/svg+xml</dc:format>
    <dc:creator>
     <cc:Agent>
      <dc:title>Matplotlib v3.7.0, https://matplotlib.org/</dc:title>
     </cc:Agent>
    </dc:creator>
   </cc:Work>
  </rdf:RDF>
 </metadata>
 <defs>
  <style type="text/css">*{stroke-linejoin: round; stroke-linecap: butt}</style>
 </defs>
 <g id="figure_1">
  <g id="patch_1">
   <path d="M -0 351.381562 
L 610.005937 351.381562 
L 610.005937 0 
L -0 0 
z
" style="fill: #ffffff"/>
  </g>
  <g id="axes_1">
   <g id="patch_2">
    <path d="M 184.105938 185.969231 
L 606.405937 185.969231 
L 606.405937 3.6 
L 184.105938 3.6 
z
" style="fill: #ffffff"/>
   </g>
   <g id="matplotlib.axis_1">
    <g id="xtick_1">
     <g id="line2d_1">
      <defs>
       <path id="m4fe8be318d" d="M 0 0 
L 0 3.5 
" style="stroke: #262626; stroke-width: 0.8"/>
      </defs>
      <g>
       <use xlink:href="#m4fe8be318d" x="233.074247" y="185.969231" style="fill: #262626; stroke: #262626; stroke-width: 0.8"/>
      </g>
     </g>
     <g id="text_1">
      <!-- −6 -->
      <g style="fill: #262626" transform="translate(225.093154 202.990168) scale(0.14 -0.14)">
       <defs>
        <path id="ArialMT-2212" d="M 3381 1997 
L 356 1997 
L 356 2522 
L 3381 2522 
L 3381 1997 
z
" transform="scale(0.015625)"/>
        <path id="ArialMT-36" d="M 3184 3459 
L 2625 3416 
Q 2550 3747 2413 3897 
Q 2184 4138 1850 4138 
Q 1581 4138 1378 3988 
Q 1113 3794 959 3422 
Q 806 3050 800 2363 
Q 1003 2672 1297 2822 
Q 1591 2972 1913 2972 
Q 2475 2972 2870 2558 
Q 3266 2144 3266 1488 
Q 3266 1056 3080 686 
Q 2894 316 2569 119 
Q 2244 -78 1831 -78 
Q 1128 -78 684 439 
Q 241 956 241 2144 
Q 241 3472 731 4075 
Q 1159 4600 1884 4600 
Q 2425 4600 2770 4297 
Q 3116 3994 3184 3459 
z
M 888 1484 
Q 888 1194 1011 928 
Q 1134 663 1356 523 
Q 1578 384 1822 384 
Q 2178 384 2434 671 
Q 2691 959 2691 1453 
Q 2691 1928 2437 2201 
Q 2184 2475 1800 2475 
Q 1419 2475 1153 2201 
Q 888 1928 888 1484 
z
" transform="scale(0.015625)"/>
       </defs>
       <use xlink:href="#ArialMT-2212"/>
       <use xlink:href="#ArialMT-36" x="58.398438"/>
      </g>
     </g>
    </g>
    <g id="xtick_2">
     <g id="line2d_2">
      <g>
       <use xlink:href="#m4fe8be318d" x="314.656845" y="185.969231" style="fill: #262626; stroke: #262626; stroke-width: 0.8"/>
      </g>
     </g>
     <g id="text_2">
      <!-- −4 -->
      <g style="fill: #262626" transform="translate(306.675751 202.990168) scale(0.14 -0.14)">
       <defs>
        <path id="ArialMT-34" d="M 2069 0 
L 2069 1097 
L 81 1097 
L 81 1613 
L 2172 4581 
L 2631 4581 
L 2631 1613 
L 3250 1613 
L 3250 1097 
L 2631 1097 
L 2631 0 
L 2069 0 
z
M 2069 1613 
L 2069 3678 
L 634 1613 
L 2069 1613 
z
" transform="scale(0.015625)"/>
       </defs>
       <use xlink:href="#ArialMT-2212"/>
       <use xlink:href="#ArialMT-34" x="58.398438"/>
      </g>
     </g>
    </g>
    <g id="xtick_3">
     <g id="line2d_3">
      <g>
       <use xlink:href="#m4fe8be318d" x="396.239443" y="185.969231" style="fill: #262626; stroke: #262626; stroke-width: 0.8"/>
      </g>
     </g>
     <g id="text_3">
      <!-- −2 -->
      <g style="fill: #262626" transform="translate(388.258349 202.990168) scale(0.14 -0.14)">
       <defs>
        <path id="ArialMT-32" d="M 3222 541 
L 3222 0 
L 194 0 
Q 188 203 259 391 
Q 375 700 629 1000 
Q 884 1300 1366 1694 
Q 2113 2306 2375 2664 
Q 2638 3022 2638 3341 
Q 2638 3675 2398 3904 
Q 2159 4134 1775 4134 
Q 1369 4134 1125 3890 
Q 881 3647 878 3216 
L 300 3275 
Q 359 3922 746 4261 
Q 1134 4600 1788 4600 
Q 2447 4600 2831 4234 
Q 3216 3869 3216 3328 
Q 3216 3053 3103 2787 
Q 2991 2522 2730 2228 
Q 2469 1934 1863 1422 
Q 1356 997 1212 845 
Q 1069 694 975 541 
L 3222 541 
z
" transform="scale(0.015625)"/>
       </defs>
       <use xlink:href="#ArialMT-2212"/>
       <use xlink:href="#ArialMT-32" x="58.398438"/>
      </g>
     </g>
    </g>
    <g id="xtick_4">
     <g id="line2d_4">
      <g>
       <use xlink:href="#m4fe8be318d" x="477.822041" y="185.969231" style="fill: #262626; stroke: #262626; stroke-width: 0.8"/>
      </g>
     </g>
     <g id="text_4">
      <!-- 0 -->
      <g style="fill: #262626" transform="translate(473.929385 202.990168) scale(0.14 -0.14)">
       <defs>
        <path id="ArialMT-30" d="M 266 2259 
Q 266 3072 433 3567 
Q 600 4063 929 4331 
Q 1259 4600 1759 4600 
Q 2128 4600 2406 4451 
Q 2684 4303 2865 4023 
Q 3047 3744 3150 3342 
Q 3253 2941 3253 2259 
Q 3253 1453 3087 958 
Q 2922 463 2592 192 
Q 2263 -78 1759 -78 
Q 1097 -78 719 397 
Q 266 969 266 2259 
z
M 844 2259 
Q 844 1131 1108 757 
Q 1372 384 1759 384 
Q 2147 384 2411 759 
Q 2675 1134 2675 2259 
Q 2675 3391 2411 3762 
Q 2147 4134 1753 4134 
Q 1366 4134 1134 3806 
Q 844 3388 844 2259 
z
" transform="scale(0.015625)"/>
       </defs>
       <use xlink:href="#ArialMT-30"/>
      </g>
     </g>
    </g>
    <g id="xtick_5">
     <g id="line2d_5">
      <g>
       <use xlink:href="#m4fe8be318d" x="559.404639" y="185.969231" style="fill: #262626; stroke: #262626; stroke-width: 0.8"/>
      </g>
     </g>
     <g id="text_5">
      <!-- 2 -->
      <g style="fill: #262626" transform="translate(555.511983 202.990168) scale(0.14 -0.14)">
       <use xlink:href="#ArialMT-32"/>
      </g>
     </g>
    </g>
   </g>
   <g id="matplotlib.axis_2">
    <g id="ytick_1">
     <g id="line2d_6">
      <defs>
       <path id="me2fe5571c8" d="M 0 0 
L -3.5 0 
" style="stroke: #262626; stroke-width: 0.8"/>
      </defs>
      <g>
       <use xlink:href="#me2fe5571c8" x="184.105938" y="12.718462" style="fill: #262626; stroke: #262626; stroke-width: 0.8"/>
      </g>
     </g>
     <g id="text_6">
      <!-- avg rel $\delta$ power(%), N1 -->
      <g style="fill: #262626" transform="translate(33.045938 17.968462) scale(0.14 -0.14)">
       <defs>
        <path id="ArialMT-61" d="M 2588 409 
Q 2275 144 1986 34 
Q 1697 -75 1366 -75 
Q 819 -75 525 192 
Q 231 459 231 875 
Q 231 1119 342 1320 
Q 453 1522 633 1644 
Q 813 1766 1038 1828 
Q 1203 1872 1538 1913 
Q 2219 1994 2541 2106 
Q 2544 2222 2544 2253 
Q 2544 2597 2384 2738 
Q 2169 2928 1744 2928 
Q 1347 2928 1158 2789 
Q 969 2650 878 2297 
L 328 2372 
Q 403 2725 575 2942 
Q 747 3159 1072 3276 
Q 1397 3394 1825 3394 
Q 2250 3394 2515 3294 
Q 2781 3194 2906 3042 
Q 3031 2891 3081 2659 
Q 3109 2516 3109 2141 
L 3109 1391 
Q 3109 606 3145 398 
Q 3181 191 3288 0 
L 2700 0 
Q 2613 175 2588 409 
z
M 2541 1666 
Q 2234 1541 1622 1453 
Q 1275 1403 1131 1340 
Q 988 1278 909 1158 
Q 831 1038 831 891 
Q 831 666 1001 516 
Q 1172 366 1500 366 
Q 1825 366 2078 508 
Q 2331 650 2450 897 
Q 2541 1088 2541 1459 
L 2541 1666 
z
" transform="scale(0.015625)"/>
        <path id="ArialMT-76" d="M 1344 0 
L 81 3319 
L 675 3319 
L 1388 1331 
Q 1503 1009 1600 663 
Q 1675 925 1809 1294 
L 2547 3319 
L 3125 3319 
L 1869 0 
L 1344 0 
z
" transform="scale(0.015625)"/>
        <path id="ArialMT-67" d="M 319 -275 
L 866 -356 
Q 900 -609 1056 -725 
Q 1266 -881 1628 -881 
Q 2019 -881 2231 -725 
Q 2444 -569 2519 -288 
Q 2563 -116 2559 434 
Q 2191 0 1641 0 
Q 956 0 581 494 
Q 206 988 206 1678 
Q 206 2153 378 2554 
Q 550 2956 876 3175 
Q 1203 3394 1644 3394 
Q 2231 3394 2613 2919 
L 2613 3319 
L 3131 3319 
L 3131 450 
Q 3131 -325 2973 -648 
Q 2816 -972 2473 -1159 
Q 2131 -1347 1631 -1347 
Q 1038 -1347 672 -1080 
Q 306 -813 319 -275 
z
M 784 1719 
Q 784 1066 1043 766 
Q 1303 466 1694 466 
Q 2081 466 2343 764 
Q 2606 1063 2606 1700 
Q 2606 2309 2336 2618 
Q 2066 2928 1684 2928 
Q 1309 2928 1046 2623 
Q 784 2319 784 1719 
z
" transform="scale(0.015625)"/>
        <path id="ArialMT-20" transform="scale(0.015625)"/>
        <path id="ArialMT-72" d="M 416 0 
L 416 3319 
L 922 3319 
L 922 2816 
Q 1116 3169 1280 3281 
Q 1444 3394 1641 3394 
Q 1925 3394 2219 3213 
L 2025 2691 
Q 1819 2813 1613 2813 
Q 1428 2813 1281 2702 
Q 1134 2591 1072 2394 
Q 978 2094 978 1738 
L 978 0 
L 416 0 
z
" transform="scale(0.015625)"/>
        <path id="ArialMT-65" d="M 2694 1069 
L 3275 997 
Q 3138 488 2766 206 
Q 2394 -75 1816 -75 
Q 1088 -75 661 373 
Q 234 822 234 1631 
Q 234 2469 665 2931 
Q 1097 3394 1784 3394 
Q 2450 3394 2872 2941 
Q 3294 2488 3294 1666 
Q 3294 1616 3291 1516 
L 816 1516 
Q 847 969 1125 678 
Q 1403 388 1819 388 
Q 2128 388 2347 550 
Q 2566 713 2694 1069 
z
M 847 1978 
L 2700 1978 
Q 2663 2397 2488 2606 
Q 2219 2931 1791 2931 
Q 1403 2931 1139 2672 
Q 875 2413 847 1978 
z
" transform="scale(0.015625)"/>
        <path id="ArialMT-6c" d="M 409 0 
L 409 4581 
L 972 4581 
L 972 0 
L 409 0 
z
" transform="scale(0.015625)"/>
        <path id="DejaVuSans-Oblique-3b4" d="M 3472 4053 
Q 3197 4272 2450 4272 
Q 1659 4272 1588 3906 
Q 1531 3619 2328 3469 
Q 2953 3353 3253 3003 
Q 3616 2581 3447 1716 
Q 3284 888 2763 400 
Q 2238 -91 1488 -91 
Q 741 -91 406 400 
Q 72 888 241 1747 
Q 363 2384 891 2900 
Q 1097 3100 1353 3213 
Q 913 3459 1000 3900 
Q 1166 4750 2544 4750 
Q 3234 4750 3566 4531 
L 3472 4053 
z
M 1753 3056 
Q 1525 2966 1306 2738 
Q 969 2384 847 1747 
Q 722 1113 919 756 
Q 1119 397 1584 397 
Q 2044 397 2381 759 
Q 2722 1122 2838 1716 
Q 2956 2338 2731 2638 
Q 2491 2959 2103 2994 
Q 1906 3013 1753 3056 
z
" transform="scale(0.015625)"/>
        <path id="ArialMT-70" d="M 422 -1272 
L 422 3319 
L 934 3319 
L 934 2888 
Q 1116 3141 1344 3267 
Q 1572 3394 1897 3394 
Q 2322 3394 2647 3175 
Q 2972 2956 3137 2557 
Q 3303 2159 3303 1684 
Q 3303 1175 3120 767 
Q 2938 359 2589 142 
Q 2241 -75 1856 -75 
Q 1575 -75 1351 44 
Q 1128 163 984 344 
L 984 -1272 
L 422 -1272 
z
M 931 1641 
Q 931 1000 1190 694 
Q 1450 388 1819 388 
Q 2194 388 2461 705 
Q 2728 1022 2728 1688 
Q 2728 2322 2467 2637 
Q 2206 2953 1844 2953 
Q 1484 2953 1207 2617 
Q 931 2281 931 1641 
z
" transform="scale(0.015625)"/>
        <path id="ArialMT-6f" d="M 213 1659 
Q 213 2581 725 3025 
Q 1153 3394 1769 3394 
Q 2453 3394 2887 2945 
Q 3322 2497 3322 1706 
Q 3322 1066 3130 698 
Q 2938 331 2570 128 
Q 2203 -75 1769 -75 
Q 1072 -75 642 372 
Q 213 819 213 1659 
z
M 791 1659 
Q 791 1022 1069 705 
Q 1347 388 1769 388 
Q 2188 388 2466 706 
Q 2744 1025 2744 1678 
Q 2744 2294 2464 2611 
Q 2184 2928 1769 2928 
Q 1347 2928 1069 2612 
Q 791 2297 791 1659 
z
" transform="scale(0.015625)"/>
        <path id="ArialMT-77" d="M 1034 0 
L 19 3319 
L 600 3319 
L 1128 1403 
L 1325 691 
Q 1338 744 1497 1375 
L 2025 3319 
L 2603 3319 
L 3100 1394 
L 3266 759 
L 3456 1400 
L 4025 3319 
L 4572 3319 
L 3534 0 
L 2950 0 
L 2422 1988 
L 2294 2553 
L 1622 0 
L 1034 0 
z
" transform="scale(0.015625)"/>
        <path id="ArialMT-28" d="M 1497 -1347 
Q 1031 -759 709 28 
Q 388 816 388 1659 
Q 388 2403 628 3084 
Q 909 3875 1497 4659 
L 1900 4659 
Q 1522 4009 1400 3731 
Q 1209 3300 1100 2831 
Q 966 2247 966 1656 
Q 966 153 1900 -1347 
L 1497 -1347 
z
" transform="scale(0.015625)"/>
        <path id="ArialMT-25" d="M 372 3481 
Q 372 3972 619 4315 
Q 866 4659 1334 4659 
Q 1766 4659 2048 4351 
Q 2331 4044 2331 3447 
Q 2331 2866 2045 2552 
Q 1759 2238 1341 2238 
Q 925 2238 648 2547 
Q 372 2856 372 3481 
z
M 1350 4272 
Q 1141 4272 1002 4090 
Q 863 3909 863 3425 
Q 863 2984 1003 2804 
Q 1144 2625 1350 2625 
Q 1563 2625 1702 2806 
Q 1841 2988 1841 3469 
Q 1841 3913 1700 4092 
Q 1559 4272 1350 4272 
z
M 1353 -169 
L 3859 4659 
L 4316 4659 
L 1819 -169 
L 1353 -169 
z
M 3334 1075 
Q 3334 1569 3581 1911 
Q 3828 2253 4300 2253 
Q 4731 2253 5014 1945 
Q 5297 1638 5297 1041 
Q 5297 459 5011 145 
Q 4725 -169 4303 -169 
Q 3888 -169 3611 142 
Q 3334 453 3334 1075 
z
M 4316 1866 
Q 4103 1866 3964 1684 
Q 3825 1503 3825 1019 
Q 3825 581 3965 400 
Q 4106 219 4313 219 
Q 4528 219 4667 400 
Q 4806 581 4806 1063 
Q 4806 1506 4665 1686 
Q 4525 1866 4316 1866 
z
" transform="scale(0.015625)"/>
        <path id="ArialMT-29" d="M 791 -1347 
L 388 -1347 
Q 1322 153 1322 1656 
Q 1322 2244 1188 2822 
Q 1081 3291 891 3722 
Q 769 4003 388 4659 
L 791 4659 
Q 1378 3875 1659 3084 
Q 1900 2403 1900 1659 
Q 1900 816 1576 28 
Q 1253 -759 791 -1347 
z
" transform="scale(0.015625)"/>
        <path id="ArialMT-2c" d="M 569 0 
L 569 641 
L 1209 641 
L 1209 0 
Q 1209 -353 1084 -570 
Q 959 -788 688 -906 
L 531 -666 
Q 709 -588 793 -436 
Q 878 -284 888 0 
L 569 0 
z
" transform="scale(0.015625)"/>
        <path id="ArialMT-4e" d="M 488 0 
L 488 4581 
L 1109 4581 
L 3516 984 
L 3516 4581 
L 4097 4581 
L 4097 0 
L 3475 0 
L 1069 3600 
L 1069 0 
L 488 0 
z
" transform="scale(0.015625)"/>
        <path id="ArialMT-31" d="M 2384 0 
L 1822 0 
L 1822 3584 
Q 1619 3391 1289 3197 
Q 959 3003 697 2906 
L 697 3450 
Q 1169 3672 1522 3987 
Q 1875 4303 2022 4600 
L 2384 4600 
L 2384 0 
z
" transform="scale(0.015625)"/>
       </defs>
       <use xlink:href="#ArialMT-61" transform="translate(0 0.78125)"/>
       <use xlink:href="#ArialMT-76" transform="translate(55.615234 0.78125)"/>
       <use xlink:href="#ArialMT-67" transform="translate(105.615234 0.78125)"/>
       <use xlink:href="#ArialMT-20" transform="translate(161.230469 0.78125)"/>
       <use xlink:href="#ArialMT-72" transform="translate(189.013672 0.78125)"/>
       <use xlink:href="#ArialMT-65" transform="translate(222.314453 0.78125)"/>
       <use xlink:href="#ArialMT-6c" transform="translate(277.929688 0.78125)"/>
       <use xlink:href="#ArialMT-20" transform="translate(300.146484 0.78125)"/>
       <use xlink:href="#DejaVuSans-Oblique-3b4" transform="translate(327.929688 0.78125)"/>
       <use xlink:href="#ArialMT-20" transform="translate(389.111328 0.78125)"/>
       <use xlink:href="#ArialMT-70" transform="translate(416.894531 0.78125)"/>
       <use xlink:href="#ArialMT-6f" transform="translate(472.509766 0.78125)"/>
       <use xlink:href="#ArialMT-77" transform="translate(528.125 0.78125)"/>
       <use xlink:href="#ArialMT-65" transform="translate(600.341797 0.78125)"/>
       <use xlink:href="#ArialMT-72" transform="translate(655.957031 0.78125)"/>
       <use xlink:href="#ArialMT-28" transform="translate(689.257812 0.78125)"/>
       <use xlink:href="#ArialMT-25" transform="translate(722.558594 0.78125)"/>
       <use xlink:href="#ArialMT-29" transform="translate(811.474609 0.78125)"/>
       <use xlink:href="#ArialMT-2c" transform="translate(844.775391 0.78125)"/>
       <use xlink:href="#ArialMT-20" transform="translate(872.558594 0.78125)"/>
       <use xlink:href="#ArialMT-4e" transform="translate(900.341797 0.78125)"/>
       <use xlink:href="#ArialMT-31" transform="translate(972.558594 0.78125)"/>
      </g>
     </g>
    </g>
    <g id="ytick_2">
     <g id="line2d_7">
      <g>
       <use xlink:href="#me2fe5571c8" x="184.105938" y="30.955385" style="fill: #262626; stroke: #262626; stroke-width: 0.8"/>
      </g>
     </g>
     <g id="text_7">
      <!-- avg rel $\alpha$ power(%), N3 -->
      <g style="fill: #262626" transform="translate(32.485938 36.065385) scale(0.14 -0.14)">
       <defs>
        <path id="DejaVuSans-Oblique-3b1" d="M 2619 1628 
L 2622 2350 
Q 2625 3088 2069 3091 
Q 1653 3094 1394 2747 
Q 1069 2319 959 1747 
Q 825 1059 994 731 
Q 1169 397 1547 397 
Q 1966 397 2319 1063 
L 2619 1628 
z
M 2166 3578 
Q 3141 3594 3128 2584 
Q 3128 2584 3616 3500 
L 4128 3500 
L 3119 1603 
L 3109 919 
Q 3109 766 3194 638 
Q 3291 488 3391 488 
L 3669 488 
L 3575 0 
L 3228 0 
Q 2934 0 2722 263 
Q 2622 394 2619 669 
Q 2416 334 2066 50 
Q 1900 -81 1453 -78 
Q 722 -72 456 397 
Q 184 884 353 1747 
Q 534 2675 1009 3097 
Q 1544 3569 2166 3578 
z
" transform="scale(0.015625)"/>
        <path id="ArialMT-33" d="M 269 1209 
L 831 1284 
Q 928 806 1161 595 
Q 1394 384 1728 384 
Q 2125 384 2398 659 
Q 2672 934 2672 1341 
Q 2672 1728 2419 1979 
Q 2166 2231 1775 2231 
Q 1616 2231 1378 2169 
L 1441 2663 
Q 1497 2656 1531 2656 
Q 1891 2656 2178 2843 
Q 2466 3031 2466 3422 
Q 2466 3731 2256 3934 
Q 2047 4138 1716 4138 
Q 1388 4138 1169 3931 
Q 950 3725 888 3313 
L 325 3413 
Q 428 3978 793 4289 
Q 1159 4600 1703 4600 
Q 2078 4600 2393 4439 
Q 2709 4278 2876 4000 
Q 3044 3722 3044 3409 
Q 3044 3113 2884 2869 
Q 2725 2625 2413 2481 
Q 2819 2388 3044 2092 
Q 3269 1797 3269 1353 
Q 3269 753 2831 336 
Q 2394 -81 1725 -81 
Q 1122 -81 723 278 
Q 325 638 269 1209 
z
" transform="scale(0.015625)"/>
       </defs>
       <use xlink:href="#ArialMT-61" transform="translate(0 0.203125)"/>
       <use xlink:href="#ArialMT-76" transform="translate(55.615234 0.203125)"/>
       <use xlink:href="#ArialMT-67" transform="translate(105.615234 0.203125)"/>
       <use xlink:href="#ArialMT-20" transform="translate(161.230469 0.203125)"/>
       <use xlink:href="#ArialMT-72" transform="translate(189.013672 0.203125)"/>
       <use xlink:href="#ArialMT-65" transform="translate(222.314453 0.203125)"/>
       <use xlink:href="#ArialMT-6c" transform="translate(277.929688 0.203125)"/>
       <use xlink:href="#ArialMT-20" transform="translate(300.146484 0.203125)"/>
       <use xlink:href="#DejaVuSans-Oblique-3b1" transform="translate(327.929688 0.203125)"/>
       <use xlink:href="#ArialMT-20" transform="translate(393.847656 0.203125)"/>
       <use xlink:href="#ArialMT-70" transform="translate(421.630859 0.203125)"/>
       <use xlink:href="#ArialMT-6f" transform="translate(477.246094 0.203125)"/>
       <use xlink:href="#ArialMT-77" transform="translate(532.861328 0.203125)"/>
       <use xlink:href="#ArialMT-65" transform="translate(605.078125 0.203125)"/>
       <use xlink:href="#ArialMT-72" transform="translate(660.693359 0.203125)"/>
       <use xlink:href="#ArialMT-28" transform="translate(693.994141 0.203125)"/>
       <use xlink:href="#ArialMT-25" transform="translate(727.294922 0.203125)"/>
       <use xlink:href="#ArialMT-29" transform="translate(816.210938 0.203125)"/>
       <use xlink:href="#ArialMT-2c" transform="translate(849.511719 0.203125)"/>
       <use xlink:href="#ArialMT-20" transform="translate(877.294922 0.203125)"/>
       <use xlink:href="#ArialMT-4e" transform="translate(905.078125 0.203125)"/>
       <use xlink:href="#ArialMT-33" transform="translate(977.294922 0.203125)"/>
      </g>
     </g>
    </g>
    <g id="ytick_3">
     <g id="line2d_8">
      <g>
       <use xlink:href="#me2fe5571c8" x="184.105938" y="49.192308" style="fill: #262626; stroke: #262626; stroke-width: 0.8"/>
      </g>
     </g>
     <g id="text_8">
      <!-- avg rel $\theta$ power(%), N3 -->
      <g style="fill: #262626" transform="translate(33.045938 54.582308) scale(0.14 -0.14)">
       <defs>
        <path id="DejaVuSans-Oblique-3b8" d="M 2913 2219 
L 925 2219 
Q 791 1284 928 888 
Q 1100 400 1566 400 
Q 2034 400 2391 891 
Q 2703 1322 2913 2219 
z
M 3009 2750 
Q 3094 3638 2984 3950 
Q 2813 4444 2353 4444 
Q 1875 4444 1525 3956 
Q 1250 3563 1034 2750 
L 3009 2750 
z
M 2444 4913 
Q 3194 4913 3494 4250 
Q 3794 3591 3566 2422 
Q 3341 1256 2781 594 
Q 2225 -72 1475 -72 
Q 722 -72 425 594 
Q 128 1256 353 2422 
Q 581 3591 1134 4250 
Q 1691 4913 2444 4913 
z
" transform="scale(0.015625)"/>
       </defs>
       <use xlink:href="#ArialMT-61" transform="translate(0 0.234375)"/>
       <use xlink:href="#ArialMT-76" transform="translate(55.615234 0.234375)"/>
       <use xlink:href="#ArialMT-67" transform="translate(105.615234 0.234375)"/>
       <use xlink:href="#ArialMT-20" transform="translate(161.230469 0.234375)"/>
       <use xlink:href="#ArialMT-72" transform="translate(189.013672 0.234375)"/>
       <use xlink:href="#ArialMT-65" transform="translate(222.314453 0.234375)"/>
       <use xlink:href="#ArialMT-6c" transform="translate(277.929688 0.234375)"/>
       <use xlink:href="#ArialMT-20" transform="translate(300.146484 0.234375)"/>
       <use xlink:href="#DejaVuSans-Oblique-3b8" transform="translate(327.929688 0.234375)"/>
       <use xlink:href="#ArialMT-20" transform="translate(389.111328 0.234375)"/>
       <use xlink:href="#ArialMT-70" transform="translate(416.894531 0.234375)"/>
       <use xlink:href="#ArialMT-6f" transform="translate(472.509766 0.234375)"/>
       <use xlink:href="#ArialMT-77" transform="translate(528.125 0.234375)"/>
       <use xlink:href="#ArialMT-65" transform="translate(600.341797 0.234375)"/>
       <use xlink:href="#ArialMT-72" transform="translate(655.957031 0.234375)"/>
       <use xlink:href="#ArialMT-28" transform="translate(689.257812 0.234375)"/>
       <use xlink:href="#ArialMT-25" transform="translate(722.558594 0.234375)"/>
       <use xlink:href="#ArialMT-29" transform="translate(811.474609 0.234375)"/>
       <use xlink:href="#ArialMT-2c" transform="translate(844.775391 0.234375)"/>
       <use xlink:href="#ArialMT-20" transform="translate(872.558594 0.234375)"/>
       <use xlink:href="#ArialMT-4e" transform="translate(900.341797 0.234375)"/>
       <use xlink:href="#ArialMT-33" transform="translate(972.558594 0.234375)"/>
      </g>
     </g>
    </g>
    <g id="ytick_4">
     <g id="line2d_9">
      <g>
       <use xlink:href="#me2fe5571c8" x="184.105938" y="67.429231" style="fill: #262626; stroke: #262626; stroke-width: 0.8"/>
      </g>
     </g>
     <g id="text_9">
      <!-- avg rel $\alpha$ power(%), R -->
      <g style="fill: #262626" transform="translate(40.185937 72.539231) scale(0.14 -0.14)">
       <defs>
        <path id="ArialMT-52" d="M 503 0 
L 503 4581 
L 2534 4581 
Q 3147 4581 3465 4457 
Q 3784 4334 3975 4021 
Q 4166 3709 4166 3331 
Q 4166 2844 3850 2509 
Q 3534 2175 2875 2084 
Q 3116 1969 3241 1856 
Q 3506 1613 3744 1247 
L 4541 0 
L 3778 0 
L 3172 953 
Q 2906 1366 2734 1584 
Q 2563 1803 2427 1890 
Q 2291 1978 2150 2013 
Q 2047 2034 1813 2034 
L 1109 2034 
L 1109 0 
L 503 0 
z
M 1109 2559 
L 2413 2559 
Q 2828 2559 3062 2645 
Q 3297 2731 3419 2920 
Q 3541 3109 3541 3331 
Q 3541 3656 3305 3865 
Q 3069 4075 2559 4075 
L 1109 4075 
L 1109 2559 
z
" transform="scale(0.015625)"/>
       </defs>
       <use xlink:href="#ArialMT-61" transform="translate(0 0.203125)"/>
       <use xlink:href="#ArialMT-76" transform="translate(55.615234 0.203125)"/>
       <use xlink:href="#ArialMT-67" transform="translate(105.615234 0.203125)"/>
       <use xlink:href="#ArialMT-20" transform="translate(161.230469 0.203125)"/>
       <use xlink:href="#ArialMT-72" transform="translate(189.013672 0.203125)"/>
       <use xlink:href="#ArialMT-65" transform="translate(222.314453 0.203125)"/>
       <use xlink:href="#ArialMT-6c" transform="translate(277.929688 0.203125)"/>
       <use xlink:href="#ArialMT-20" transform="translate(300.146484 0.203125)"/>
       <use xlink:href="#DejaVuSans-Oblique-3b1" transform="translate(327.929688 0.203125)"/>
       <use xlink:href="#ArialMT-20" transform="translate(393.847656 0.203125)"/>
       <use xlink:href="#ArialMT-70" transform="translate(421.630859 0.203125)"/>
       <use xlink:href="#ArialMT-6f" transform="translate(477.246094 0.203125)"/>
       <use xlink:href="#ArialMT-77" transform="translate(532.861328 0.203125)"/>
       <use xlink:href="#ArialMT-65" transform="translate(605.078125 0.203125)"/>
       <use xlink:href="#ArialMT-72" transform="translate(660.693359 0.203125)"/>
       <use xlink:href="#ArialMT-28" transform="translate(693.994141 0.203125)"/>
       <use xlink:href="#ArialMT-25" transform="translate(727.294922 0.203125)"/>
       <use xlink:href="#ArialMT-29" transform="translate(816.210938 0.203125)"/>
       <use xlink:href="#ArialMT-2c" transform="translate(849.511719 0.203125)"/>
       <use xlink:href="#ArialMT-20" transform="translate(877.294922 0.203125)"/>
       <use xlink:href="#ArialMT-52" transform="translate(905.078125 0.203125)"/>
      </g>
     </g>
    </g>
    <g id="ytick_5">
     <g id="line2d_10">
      <g>
       <use xlink:href="#me2fe5571c8" x="184.105938" y="85.666154" style="fill: #262626; stroke: #262626; stroke-width: 0.8"/>
      </g>
     </g>
     <g id="text_10">
      <!-- avg rel $\alpha$ power(%), N2 -->
      <g style="fill: #262626" transform="translate(32.485938 90.776154) scale(0.14 -0.14)">
       <use xlink:href="#ArialMT-61" transform="translate(0 0.203125)"/>
       <use xlink:href="#ArialMT-76" transform="translate(55.615234 0.203125)"/>
       <use xlink:href="#ArialMT-67" transform="translate(105.615234 0.203125)"/>
       <use xlink:href="#ArialMT-20" transform="translate(161.230469 0.203125)"/>
       <use xlink:href="#ArialMT-72" transform="translate(189.013672 0.203125)"/>
       <use xlink:href="#ArialMT-65" transform="translate(222.314453 0.203125)"/>
       <use xlink:href="#ArialMT-6c" transform="translate(277.929688 0.203125)"/>
       <use xlink:href="#ArialMT-20" transform="translate(300.146484 0.203125)"/>
       <use xlink:href="#DejaVuSans-Oblique-3b1" transform="translate(327.929688 0.203125)"/>
       <use xlink:href="#ArialMT-20" transform="translate(393.847656 0.203125)"/>
       <use xlink:href="#ArialMT-70" transform="translate(421.630859 0.203125)"/>
       <use xlink:href="#ArialMT-6f" transform="translate(477.246094 0.203125)"/>
       <use xlink:href="#ArialMT-77" transform="translate(532.861328 0.203125)"/>
       <use xlink:href="#ArialMT-65" transform="translate(605.078125 0.203125)"/>
       <use xlink:href="#ArialMT-72" transform="translate(660.693359 0.203125)"/>
       <use xlink:href="#ArialMT-28" transform="translate(693.994141 0.203125)"/>
       <use xlink:href="#ArialMT-25" transform="translate(727.294922 0.203125)"/>
       <use xlink:href="#ArialMT-29" transform="translate(816.210938 0.203125)"/>
       <use xlink:href="#ArialMT-2c" transform="translate(849.511719 0.203125)"/>
       <use xlink:href="#ArialMT-20" transform="translate(877.294922 0.203125)"/>
       <use xlink:href="#ArialMT-4e" transform="translate(905.078125 0.203125)"/>
       <use xlink:href="#ArialMT-32" transform="translate(977.294922 0.203125)"/>
      </g>
     </g>
    </g>
    <g id="ytick_6">
     <g id="line2d_11">
      <g>
       <use xlink:href="#me2fe5571c8" x="184.105938" y="103.903077" style="fill: #262626; stroke: #262626; stroke-width: 0.8"/>
      </g>
     </g>
     <g id="text_11">
      <!-- avg rel $\theta$ power(%), N2 -->
      <g style="fill: #262626" transform="translate(33.045938 109.293077) scale(0.14 -0.14)">
       <use xlink:href="#ArialMT-61" transform="translate(0 0.234375)"/>
       <use xlink:href="#ArialMT-76" transform="translate(55.615234 0.234375)"/>
       <use xlink:href="#ArialMT-67" transform="translate(105.615234 0.234375)"/>
       <use xlink:href="#ArialMT-20" transform="translate(161.230469 0.234375)"/>
       <use xlink:href="#ArialMT-72" transform="translate(189.013672 0.234375)"/>
       <use xlink:href="#ArialMT-65" transform="translate(222.314453 0.234375)"/>
       <use xlink:href="#ArialMT-6c" transform="translate(277.929688 0.234375)"/>
       <use xlink:href="#ArialMT-20" transform="translate(300.146484 0.234375)"/>
       <use xlink:href="#DejaVuSans-Oblique-3b8" transform="translate(327.929688 0.234375)"/>
       <use xlink:href="#ArialMT-20" transform="translate(389.111328 0.234375)"/>
       <use xlink:href="#ArialMT-70" transform="translate(416.894531 0.234375)"/>
       <use xlink:href="#ArialMT-6f" transform="translate(472.509766 0.234375)"/>
       <use xlink:href="#ArialMT-77" transform="translate(528.125 0.234375)"/>
       <use xlink:href="#ArialMT-65" transform="translate(600.341797 0.234375)"/>
       <use xlink:href="#ArialMT-72" transform="translate(655.957031 0.234375)"/>
       <use xlink:href="#ArialMT-28" transform="translate(689.257812 0.234375)"/>
       <use xlink:href="#ArialMT-25" transform="translate(722.558594 0.234375)"/>
       <use xlink:href="#ArialMT-29" transform="translate(811.474609 0.234375)"/>
       <use xlink:href="#ArialMT-2c" transform="translate(844.775391 0.234375)"/>
       <use xlink:href="#ArialMT-20" transform="translate(872.558594 0.234375)"/>
       <use xlink:href="#ArialMT-4e" transform="translate(900.341797 0.234375)"/>
       <use xlink:href="#ArialMT-32" transform="translate(972.558594 0.234375)"/>
      </g>
     </g>
    </g>
    <g id="ytick_7">
     <g id="line2d_12">
      <g>
       <use xlink:href="#me2fe5571c8" x="184.105938" y="122.14" style="fill: #262626; stroke: #262626; stroke-width: 0.8"/>
      </g>
     </g>
     <g id="text_12">
      <!-- avg rel $\alpha$ power(%), W -->
      <g style="fill: #262626" transform="translate(37.105938 127.25) scale(0.14 -0.14)">
       <defs>
        <path id="ArialMT-57" d="M 1294 0 
L 78 4581 
L 700 4581 
L 1397 1578 
Q 1509 1106 1591 641 
Q 1766 1375 1797 1488 
L 2669 4581 
L 3400 4581 
L 4056 2263 
Q 4303 1400 4413 641 
Q 4500 1075 4641 1638 
L 5359 4581 
L 5969 4581 
L 4713 0 
L 4128 0 
L 3163 3491 
Q 3041 3928 3019 4028 
Q 2947 3713 2884 3491 
L 1913 0 
L 1294 0 
z
" transform="scale(0.015625)"/>
       </defs>
       <use xlink:href="#ArialMT-61" transform="translate(0 0.203125)"/>
       <use xlink:href="#ArialMT-76" transform="translate(55.615234 0.203125)"/>
       <use xlink:href="#ArialMT-67" transform="translate(105.615234 0.203125)"/>
       <use xlink:href="#ArialMT-20" transform="translate(161.230469 0.203125)"/>
       <use xlink:href="#ArialMT-72" transform="translate(189.013672 0.203125)"/>
       <use xlink:href="#ArialMT-65" transform="translate(222.314453 0.203125)"/>
       <use xlink:href="#ArialMT-6c" transform="translate(277.929688 0.203125)"/>
       <use xlink:href="#ArialMT-20" transform="translate(300.146484 0.203125)"/>
       <use xlink:href="#DejaVuSans-Oblique-3b1" transform="translate(327.929688 0.203125)"/>
       <use xlink:href="#ArialMT-20" transform="translate(393.847656 0.203125)"/>
       <use xlink:href="#ArialMT-70" transform="translate(421.630859 0.203125)"/>
       <use xlink:href="#ArialMT-6f" transform="translate(477.246094 0.203125)"/>
       <use xlink:href="#ArialMT-77" transform="translate(532.861328 0.203125)"/>
       <use xlink:href="#ArialMT-65" transform="translate(605.078125 0.203125)"/>
       <use xlink:href="#ArialMT-72" transform="translate(660.693359 0.203125)"/>
       <use xlink:href="#ArialMT-28" transform="translate(693.994141 0.203125)"/>
       <use xlink:href="#ArialMT-25" transform="translate(727.294922 0.203125)"/>
       <use xlink:href="#ArialMT-29" transform="translate(816.210938 0.203125)"/>
       <use xlink:href="#ArialMT-2c" transform="translate(849.511719 0.203125)"/>
       <use xlink:href="#ArialMT-20" transform="translate(877.294922 0.203125)"/>
       <use xlink:href="#ArialMT-57" transform="translate(905.078125 0.203125)"/>
      </g>
     </g>
    </g>
    <g id="ytick_8">
     <g id="line2d_13">
      <g>
       <use xlink:href="#me2fe5571c8" x="184.105938" y="140.376923" style="fill: #262626; stroke: #262626; stroke-width: 0.8"/>
      </g>
     </g>
     <g id="text_13">
      <!-- avg rel $\alpha$ power(%), N1 -->
      <g style="fill: #262626" transform="translate(32.485938 145.486923) scale(0.14 -0.14)">
       <use xlink:href="#ArialMT-61" transform="translate(0 0.203125)"/>
       <use xlink:href="#ArialMT-76" transform="translate(55.615234 0.203125)"/>
       <use xlink:href="#ArialMT-67" transform="translate(105.615234 0.203125)"/>
       <use xlink:href="#ArialMT-20" transform="translate(161.230469 0.203125)"/>
       <use xlink:href="#ArialMT-72" transform="translate(189.013672 0.203125)"/>
       <use xlink:href="#ArialMT-65" transform="translate(222.314453 0.203125)"/>
       <use xlink:href="#ArialMT-6c" transform="translate(277.929688 0.203125)"/>
       <use xlink:href="#ArialMT-20" transform="translate(300.146484 0.203125)"/>
       <use xlink:href="#DejaVuSans-Oblique-3b1" transform="translate(327.929688 0.203125)"/>
       <use xlink:href="#ArialMT-20" transform="translate(393.847656 0.203125)"/>
       <use xlink:href="#ArialMT-70" transform="translate(421.630859 0.203125)"/>
       <use xlink:href="#ArialMT-6f" transform="translate(477.246094 0.203125)"/>
       <use xlink:href="#ArialMT-77" transform="translate(532.861328 0.203125)"/>
       <use xlink:href="#ArialMT-65" transform="translate(605.078125 0.203125)"/>
       <use xlink:href="#ArialMT-72" transform="translate(660.693359 0.203125)"/>
       <use xlink:href="#ArialMT-28" transform="translate(693.994141 0.203125)"/>
       <use xlink:href="#ArialMT-25" transform="translate(727.294922 0.203125)"/>
       <use xlink:href="#ArialMT-29" transform="translate(816.210938 0.203125)"/>
       <use xlink:href="#ArialMT-2c" transform="translate(849.511719 0.203125)"/>
       <use xlink:href="#ArialMT-20" transform="translate(877.294922 0.203125)"/>
       <use xlink:href="#ArialMT-4e" transform="translate(905.078125 0.203125)"/>
       <use xlink:href="#ArialMT-31" transform="translate(977.294922 0.203125)"/>
      </g>
     </g>
    </g>
    <g id="ytick_9">
     <g id="line2d_14">
      <g>
       <use xlink:href="#me2fe5571c8" x="184.105938" y="158.613846" style="fill: #262626; stroke: #262626; stroke-width: 0.8"/>
      </g>
     </g>
     <g id="text_14">
      <!-- Arousal Index (/h) -->
      <g style="fill: #262626" transform="translate(66.6175 163.709627) scale(0.14 -0.14)">
       <defs>
        <path id="ArialMT-41" d="M -9 0 
L 1750 4581 
L 2403 4581 
L 4278 0 
L 3588 0 
L 3053 1388 
L 1138 1388 
L 634 0 
L -9 0 
z
M 1313 1881 
L 2866 1881 
L 2388 3150 
Q 2169 3728 2063 4100 
Q 1975 3659 1816 3225 
L 1313 1881 
z
" transform="scale(0.015625)"/>
        <path id="ArialMT-75" d="M 2597 0 
L 2597 488 
Q 2209 -75 1544 -75 
Q 1250 -75 995 37 
Q 741 150 617 320 
Q 494 491 444 738 
Q 409 903 409 1263 
L 409 3319 
L 972 3319 
L 972 1478 
Q 972 1038 1006 884 
Q 1059 663 1231 536 
Q 1403 409 1656 409 
Q 1909 409 2131 539 
Q 2353 669 2445 892 
Q 2538 1116 2538 1541 
L 2538 3319 
L 3100 3319 
L 3100 0 
L 2597 0 
z
" transform="scale(0.015625)"/>
        <path id="ArialMT-73" d="M 197 991 
L 753 1078 
Q 800 744 1014 566 
Q 1228 388 1613 388 
Q 2000 388 2187 545 
Q 2375 703 2375 916 
Q 2375 1106 2209 1216 
Q 2094 1291 1634 1406 
Q 1016 1563 777 1677 
Q 538 1791 414 1992 
Q 291 2194 291 2438 
Q 291 2659 392 2848 
Q 494 3038 669 3163 
Q 800 3259 1026 3326 
Q 1253 3394 1513 3394 
Q 1903 3394 2198 3281 
Q 2494 3169 2634 2976 
Q 2775 2784 2828 2463 
L 2278 2388 
Q 2241 2644 2061 2787 
Q 1881 2931 1553 2931 
Q 1166 2931 1000 2803 
Q 834 2675 834 2503 
Q 834 2394 903 2306 
Q 972 2216 1119 2156 
Q 1203 2125 1616 2013 
Q 2213 1853 2448 1751 
Q 2684 1650 2818 1456 
Q 2953 1263 2953 975 
Q 2953 694 2789 445 
Q 2625 197 2315 61 
Q 2006 -75 1616 -75 
Q 969 -75 630 194 
Q 291 463 197 991 
z
" transform="scale(0.015625)"/>
        <path id="ArialMT-49" d="M 597 0 
L 597 4581 
L 1203 4581 
L 1203 0 
L 597 0 
z
" transform="scale(0.015625)"/>
        <path id="ArialMT-6e" d="M 422 0 
L 422 3319 
L 928 3319 
L 928 2847 
Q 1294 3394 1984 3394 
Q 2284 3394 2536 3286 
Q 2788 3178 2913 3003 
Q 3038 2828 3088 2588 
Q 3119 2431 3119 2041 
L 3119 0 
L 2556 0 
L 2556 2019 
Q 2556 2363 2490 2533 
Q 2425 2703 2258 2804 
Q 2091 2906 1866 2906 
Q 1506 2906 1245 2678 
Q 984 2450 984 1813 
L 984 0 
L 422 0 
z
" transform="scale(0.015625)"/>
        <path id="ArialMT-64" d="M 2575 0 
L 2575 419 
Q 2259 -75 1647 -75 
Q 1250 -75 917 144 
Q 584 363 401 755 
Q 219 1147 219 1656 
Q 219 2153 384 2558 
Q 550 2963 881 3178 
Q 1213 3394 1622 3394 
Q 1922 3394 2156 3267 
Q 2391 3141 2538 2938 
L 2538 4581 
L 3097 4581 
L 3097 0 
L 2575 0 
z
M 797 1656 
Q 797 1019 1065 703 
Q 1334 388 1700 388 
Q 2069 388 2326 689 
Q 2584 991 2584 1609 
Q 2584 2291 2321 2609 
Q 2059 2928 1675 2928 
Q 1300 2928 1048 2622 
Q 797 2316 797 1656 
z
" transform="scale(0.015625)"/>
        <path id="ArialMT-78" d="M 47 0 
L 1259 1725 
L 138 3319 
L 841 3319 
L 1350 2541 
Q 1494 2319 1581 2169 
Q 1719 2375 1834 2534 
L 2394 3319 
L 3066 3319 
L 1919 1756 
L 3153 0 
L 2463 0 
L 1781 1031 
L 1600 1309 
L 728 0 
L 47 0 
z
" transform="scale(0.015625)"/>
        <path id="ArialMT-2f" d="M 0 -78 
L 1328 4659 
L 1778 4659 
L 453 -78 
L 0 -78 
z
" transform="scale(0.015625)"/>
        <path id="ArialMT-68" d="M 422 0 
L 422 4581 
L 984 4581 
L 984 2938 
Q 1378 3394 1978 3394 
Q 2347 3394 2619 3248 
Q 2891 3103 3008 2847 
Q 3125 2591 3125 2103 
L 3125 0 
L 2563 0 
L 2563 2103 
Q 2563 2525 2380 2717 
Q 2197 2909 1863 2909 
Q 1613 2909 1392 2779 
Q 1172 2650 1078 2428 
Q 984 2206 984 1816 
L 984 0 
L 422 0 
z
" transform="scale(0.015625)"/>
       </defs>
       <use xlink:href="#ArialMT-41"/>
       <use xlink:href="#ArialMT-72" x="66.699219"/>
       <use xlink:href="#ArialMT-6f" x="100"/>
       <use xlink:href="#ArialMT-75" x="155.615234"/>
       <use xlink:href="#ArialMT-73" x="211.230469"/>
       <use xlink:href="#ArialMT-61" x="261.230469"/>
       <use xlink:href="#ArialMT-6c" x="316.845703"/>
       <use xlink:href="#ArialMT-20" x="339.0625"/>
       <use xlink:href="#ArialMT-49" x="366.845703"/>
       <use xlink:href="#ArialMT-6e" x="394.628906"/>
       <use xlink:href="#ArialMT-64" x="450.244141"/>
       <use xlink:href="#ArialMT-65" x="505.859375"/>
       <use xlink:href="#ArialMT-78" x="561.474609"/>
       <use xlink:href="#ArialMT-20" x="611.474609"/>
       <use xlink:href="#ArialMT-28" x="639.257812"/>
       <use xlink:href="#ArialMT-2f" x="672.558594"/>
       <use xlink:href="#ArialMT-68" x="700.341797"/>
       <use xlink:href="#ArialMT-29" x="755.957031"/>
      </g>
     </g>
    </g>
    <g id="ytick_10">
     <g id="line2d_15">
      <g>
       <use xlink:href="#me2fe5571c8" x="184.105938" y="176.850769" style="fill: #262626; stroke: #262626; stroke-width: 0.8"/>
      </g>
     </g>
     <g id="text_15">
      <!-- spindle amp ($\mu$V), N2 or N3 -->
      <g style="fill: #262626" transform="translate(6.305937 181.960769) scale(0.14 -0.14)">
       <defs>
        <path id="ArialMT-69" d="M 425 3934 
L 425 4581 
L 988 4581 
L 988 3934 
L 425 3934 
z
M 425 0 
L 425 3319 
L 988 3319 
L 988 0 
L 425 0 
z
" transform="scale(0.015625)"/>
        <path id="ArialMT-6d" d="M 422 0 
L 422 3319 
L 925 3319 
L 925 2853 
Q 1081 3097 1340 3245 
Q 1600 3394 1931 3394 
Q 2300 3394 2536 3241 
Q 2772 3088 2869 2813 
Q 3263 3394 3894 3394 
Q 4388 3394 4653 3120 
Q 4919 2847 4919 2278 
L 4919 0 
L 4359 0 
L 4359 2091 
Q 4359 2428 4304 2576 
Q 4250 2725 4106 2815 
Q 3963 2906 3769 2906 
Q 3419 2906 3187 2673 
Q 2956 2441 2956 1928 
L 2956 0 
L 2394 0 
L 2394 2156 
Q 2394 2531 2256 2718 
Q 2119 2906 1806 2906 
Q 1569 2906 1367 2781 
Q 1166 2656 1075 2415 
Q 984 2175 984 1722 
L 984 0 
L 422 0 
z
" transform="scale(0.015625)"/>
        <path id="DejaVuSans-Oblique-3bc" d="M -84 -1331 
L 856 3500 
L 1434 3500 
L 1009 1322 
Q 997 1256 987 1175 
Q 978 1094 978 1013 
Q 978 722 1161 565 
Q 1344 409 1684 409 
Q 2147 409 2431 671 
Q 2716 934 2816 1459 
L 3213 3500 
L 3788 3500 
L 3266 809 
Q 3253 750 3248 706 
Q 3244 663 3244 628 
Q 3244 531 3283 486 
Q 3322 441 3406 441 
Q 3438 441 3492 456 
Q 3547 472 3647 513 
L 3559 50 
Q 3422 -19 3297 -55 
Q 3172 -91 3053 -91 
Q 2847 -91 2730 40 
Q 2613 172 2613 403 
Q 2438 153 2195 31 
Q 1953 -91 1625 -91 
Q 1334 -91 1117 43 
Q 900 178 831 397 
L 494 -1331 
L -84 -1331 
z
" transform="scale(0.015625)"/>
        <path id="ArialMT-56" d="M 1803 0 
L 28 4581 
L 684 4581 
L 1875 1253 
Q 2019 853 2116 503 
Q 2222 878 2363 1253 
L 3600 4581 
L 4219 4581 
L 2425 0 
L 1803 0 
z
" transform="scale(0.015625)"/>
       </defs>
       <use xlink:href="#ArialMT-73" transform="translate(0 0.203125)"/>
       <use xlink:href="#ArialMT-70" transform="translate(50 0.203125)"/>
       <use xlink:href="#ArialMT-69" transform="translate(105.615234 0.203125)"/>
       <use xlink:href="#ArialMT-6e" transform="translate(127.832031 0.203125)"/>
       <use xlink:href="#ArialMT-64" transform="translate(183.447266 0.203125)"/>
       <use xlink:href="#ArialMT-6c" transform="translate(239.0625 0.203125)"/>
       <use xlink:href="#ArialMT-65" transform="translate(261.279297 0.203125)"/>
       <use xlink:href="#ArialMT-20" transform="translate(316.894531 0.203125)"/>
       <use xlink:href="#ArialMT-61" transform="translate(344.677734 0.203125)"/>
       <use xlink:href="#ArialMT-6d" transform="translate(400.292969 0.203125)"/>
       <use xlink:href="#ArialMT-70" transform="translate(483.59375 0.203125)"/>
       <use xlink:href="#ArialMT-20" transform="translate(539.208984 0.203125)"/>
       <use xlink:href="#ArialMT-28" transform="translate(566.992188 0.203125)"/>
       <use xlink:href="#DejaVuSans-Oblique-3bc" transform="translate(600.292969 0.203125)"/>
       <use xlink:href="#ArialMT-56" transform="translate(663.916016 0.203125)"/>
       <use xlink:href="#ArialMT-29" transform="translate(730.615234 0.203125)"/>
       <use xlink:href="#ArialMT-2c" transform="translate(763.916016 0.203125)"/>
       <use xlink:href="#ArialMT-20" transform="translate(791.699219 0.203125)"/>
       <use xlink:href="#ArialMT-4e" transform="translate(819.482422 0.203125)"/>
       <use xlink:href="#ArialMT-32" transform="translate(891.699219 0.203125)"/>
       <use xlink:href="#ArialMT-20" transform="translate(947.314453 0.203125)"/>
       <use xlink:href="#ArialMT-6f" transform="translate(975.097656 0.203125)"/>
       <use xlink:href="#ArialMT-72" transform="translate(1030.712891 0.203125)"/>
       <use xlink:href="#ArialMT-20" transform="translate(1064.013672 0.203125)"/>
       <use xlink:href="#ArialMT-4e" transform="translate(1091.796875 0.203125)"/>
       <use xlink:href="#ArialMT-33" transform="translate(1164.013672 0.203125)"/>
      </g>
     </g>
    </g>
   </g>
   <g id="PathCollection_1">
    <defs>
     <path id="ma038021cb6" d="M -4.1833 4.1833 
L 4.1833 4.1833 
L 4.1833 -4.1833 
L -4.1833 -4.1833 
z
" style="stroke: #000000; stroke-opacity: 0.3"/>
    </defs>
    <g clip-path="url(#p3e43ace29a)">
     <use xlink:href="#ma038021cb6" x="541.703215" y="12.718462" style="fill-opacity: 0.3; stroke: #000000; stroke-opacity: 0.3"/>
    </g>
   </g>
   <g id="PathCollection_2">
    <defs>
     <path id="mc4a6f96d08" d="M 0 1.414214 
C 0.375054 1.414214 0.734797 1.265203 1 1 
C 1.265203 0.734797 1.414214 0.375054 1.414214 0 
C 1.414214 -0.375054 1.265203 -0.734797 1 -1 
C 0.734797 -1.265203 0.375054 -1.414214 0 -1.414214 
C -0.375054 -1.414214 -0.734797 -1.265203 -1 -1 
C -1.265203 -0.734797 -1.414214 -0.375054 -1.414214 0 
C -1.414214 0.375054 -1.265203 0.734797 -1 1 
C -0.734797 1.265203 -0.375054 1.414214 0 1.414214 
z
" style="stroke: #000000"/>
    </defs>
    <g clip-path="url(#p3e43ace29a)">
     <use xlink:href="#mc4a6f96d08" x="541.703215" y="12.718462" style="stroke: #000000"/>
    </g>
   </g>
   <g id="PathCollection_3">
    <g clip-path="url(#p3e43ace29a)">
     <use xlink:href="#ma038021cb6" x="445.522419" y="30.955385" style="fill-opacity: 0.3; stroke: #000000; stroke-opacity: 0.3"/>
    </g>
   </g>
   <g id="PathCollection_4">
    <g clip-path="url(#p3e43ace29a)">
     <use xlink:href="#mc4a6f96d08" x="445.522419" y="30.955385" style="stroke: #000000"/>
    </g>
   </g>
   <g id="PathCollection_5">
    <g clip-path="url(#p3e43ace29a)">
     <use xlink:href="#ma038021cb6" x="424.722434" y="49.192308" style="fill-opacity: 0.3; stroke: #000000; stroke-opacity: 0.3"/>
    </g>
   </g>
   <g id="PathCollection_6">
    <g clip-path="url(#p3e43ace29a)">
     <use xlink:href="#mc4a6f96d08" x="424.722434" y="49.192308" style="stroke: #000000"/>
    </g>
   </g>
   <g id="PathCollection_7">
    <g clip-path="url(#p3e43ace29a)">
     <use xlink:href="#ma038021cb6" x="415.859345" y="67.429231" style="fill-opacity: 0.3; stroke: #000000; stroke-opacity: 0.3"/>
    </g>
   </g>
   <g id="PathCollection_8">
    <g clip-path="url(#p3e43ace29a)">
     <use xlink:href="#mc4a6f96d08" x="415.859345" y="67.429231" style="stroke: #000000"/>
    </g>
   </g>
   <g id="PathCollection_9">
    <g clip-path="url(#p3e43ace29a)">
     <use xlink:href="#ma038021cb6" x="411.637992" y="85.666154" style="fill-opacity: 0.3; stroke: #000000; stroke-opacity: 0.3"/>
    </g>
   </g>
   <g id="PathCollection_10">
    <g clip-path="url(#p3e43ace29a)">
     <use xlink:href="#mc4a6f96d08" x="411.637992" y="85.666154" style="stroke: #000000"/>
    </g>
   </g>
   <g id="PathCollection_11">
    <g clip-path="url(#p3e43ace29a)">
     <use xlink:href="#ma038021cb6" x="409.850568" y="103.903077" style="fill-opacity: 0.3; stroke: #000000; stroke-opacity: 0.3"/>
    </g>
   </g>
   <g id="PathCollection_12">
    <g clip-path="url(#p3e43ace29a)">
     <use xlink:href="#mc4a6f96d08" x="409.850568" y="103.903077" style="stroke: #000000"/>
    </g>
   </g>
   <g id="PathCollection_13">
    <g clip-path="url(#p3e43ace29a)">
     <use xlink:href="#ma038021cb6" x="406.596782" y="122.14" style="fill-opacity: 0.3; stroke: #000000; stroke-opacity: 0.3"/>
    </g>
   </g>
   <g id="PathCollection_14">
    <g clip-path="url(#p3e43ace29a)">
     <use xlink:href="#mc4a6f96d08" x="406.596782" y="122.14" style="stroke: #000000"/>
    </g>
   </g>
   <g id="PathCollection_15">
    <g clip-path="url(#p3e43ace29a)">
     <use xlink:href="#ma038021cb6" x="405.647199" y="140.376923" style="fill-opacity: 0.3; stroke: #000000; stroke-opacity: 0.3"/>
    </g>
   </g>
   <g id="PathCollection_16">
    <g clip-path="url(#p3e43ace29a)">
     <use xlink:href="#mc4a6f96d08" x="405.647199" y="140.376923" style="stroke: #000000"/>
    </g>
   </g>
   <g id="PathCollection_17">
    <g clip-path="url(#p3e43ace29a)">
     <use xlink:href="#ma038021cb6" x="351.02416" y="158.613846" style="fill-opacity: 0.3; stroke: #000000; stroke-opacity: 0.3"/>
    </g>
   </g>
   <g id="PathCollection_18">
    <g clip-path="url(#p3e43ace29a)">
     <use xlink:href="#mc4a6f96d08" x="351.02416" y="158.613846" style="stroke: #000000"/>
    </g>
   </g>
   <g id="PathCollection_19">
    <g clip-path="url(#p3e43ace29a)">
     <use xlink:href="#ma038021cb6" x="279.312388" y="176.850769" style="fill-opacity: 0.3; stroke: #000000; stroke-opacity: 0.3"/>
    </g>
   </g>
   <g id="PathCollection_20">
    <g clip-path="url(#p3e43ace29a)">
     <use xlink:href="#mc4a6f96d08" x="279.312388" y="176.850769" style="stroke: #000000"/>
    </g>
   </g>
   <g id="line2d_16">
    <path d="M 504.397165 12.718462 
L 587.210483 12.718462 
" clip-path="url(#p3e43ace29a)" style="fill: none; stroke: #000000; stroke-linecap: round"/>
   </g>
   <g id="line2d_17">
    <path d="M 429.576241 30.955385 
L 464.310777 30.955385 
" clip-path="url(#p3e43ace29a)" style="fill: none; stroke: #000000; stroke-linecap: round"/>
   </g>
   <g id="line2d_18">
    <path d="M 402.895523 49.192308 
L 455.956102 49.192308 
" clip-path="url(#p3e43ace29a)" style="fill: none; stroke: #000000; stroke-linecap: round"/>
   </g>
   <g id="line2d_19">
    <path d="M 382.376751 67.429231 
L 447.008307 67.429231 
" clip-path="url(#p3e43ace29a)" style="fill: none; stroke: #000000; stroke-linecap: round"/>
   </g>
   <g id="line2d_20">
    <path d="M 383.441971 85.666154 
L 439.561437 85.666154 
" clip-path="url(#p3e43ace29a)" style="fill: none; stroke: #000000; stroke-linecap: round"/>
   </g>
   <g id="line2d_21">
    <path d="M 376.40638 103.903077 
L 441.741668 103.903077 
" clip-path="url(#p3e43ace29a)" style="fill: none; stroke: #000000; stroke-linecap: round"/>
   </g>
   <g id="line2d_22">
    <path d="M 367.748066 122.14 
L 449.040202 122.14 
" clip-path="url(#p3e43ace29a)" style="fill: none; stroke: #000000; stroke-linecap: round"/>
   </g>
   <g id="line2d_23">
    <path d="M 362.68879 140.376923 
L 447.432905 140.376923 
" clip-path="url(#p3e43ace29a)" style="fill: none; stroke: #000000; stroke-linecap: round"/>
   </g>
   <g id="line2d_24">
    <path d="M 289.012353 158.613846 
L 422.215283 158.613846 
" clip-path="url(#p3e43ace29a)" style="fill: none; stroke: #000000; stroke-linecap: round"/>
   </g>
   <g id="line2d_25">
    <path d="M 203.301392 176.850769 
L 352.763925 176.850769 
" clip-path="url(#p3e43ace29a)" style="fill: none; stroke: #000000; stroke-linecap: round"/>
   </g>
   <g id="line2d_26">
    <path d="M 477.822041 185.969231 
L 477.822041 3.6 
" clip-path="url(#p3e43ace29a)" style="fill: none; stroke-dasharray: 5.55,2.4; stroke-dashoffset: 0; stroke: #000000; stroke-width: 1.5"/>
   </g>
   <g id="patch_3">
    <path d="M 184.105938 185.969231 
L 184.105938 3.6 
" style="fill: none; stroke: #262626; stroke-width: 0.8; stroke-linejoin: miter; stroke-linecap: square"/>
   </g>
   <g id="patch_4">
    <path d="M 184.105938 185.969231 
L 606.405937 185.969231 
" style="fill: none; stroke: #262626; stroke-width: 0.8; stroke-linejoin: miter; stroke-linecap: square"/>
   </g>
  </g>
  <g id="axes_2">
   <g id="patch_5">
    <path d="M 184.105938 239.286154 
L 606.405937 239.286154 
L 606.405937 221.049231 
L 184.105938 221.049231 
z
" style="fill: #ffffff"/>
   </g>
   <g id="matplotlib.axis_3">
    <g id="xtick_6">
     <g id="line2d_27">
      <g>
       <use xlink:href="#m4fe8be318d" x="203.301392" y="239.286154" style="fill: #262626; stroke: #262626; stroke-width: 0.8"/>
      </g>
     </g>
     <g id="text_16">
      <!-- 0.0 -->
      <g style="fill: #262626" transform="translate(193.571392 256.307091) scale(0.14 -0.14)">
       <defs>
        <path id="ArialMT-2e" d="M 581 0 
L 581 641 
L 1222 641 
L 1222 0 
L 581 0 
z
" transform="scale(0.015625)"/>
       </defs>
       <use xlink:href="#ArialMT-30"/>
       <use xlink:href="#ArialMT-2e" x="55.615234"/>
       <use xlink:href="#ArialMT-30" x="83.398438"/>
      </g>
     </g>
    </g>
    <g id="xtick_7">
     <g id="line2d_28">
      <g>
       <use xlink:href="#m4fe8be318d" x="250.872598" y="239.286154" style="fill: #262626; stroke: #262626; stroke-width: 0.8"/>
      </g>
     </g>
     <g id="text_17">
      <!-- 2.5 -->
      <g style="fill: #262626" transform="translate(241.142598 256.307091) scale(0.14 -0.14)">
       <defs>
        <path id="ArialMT-35" d="M 266 1200 
L 856 1250 
Q 922 819 1161 601 
Q 1400 384 1738 384 
Q 2144 384 2425 690 
Q 2706 997 2706 1503 
Q 2706 1984 2436 2262 
Q 2166 2541 1728 2541 
Q 1456 2541 1237 2417 
Q 1019 2294 894 2097 
L 366 2166 
L 809 4519 
L 3088 4519 
L 3088 3981 
L 1259 3981 
L 1013 2750 
Q 1425 3038 1878 3038 
Q 2478 3038 2890 2622 
Q 3303 2206 3303 1553 
Q 3303 931 2941 478 
Q 2500 -78 1738 -78 
Q 1113 -78 717 272 
Q 322 622 266 1200 
z
" transform="scale(0.015625)"/>
       </defs>
       <use xlink:href="#ArialMT-32"/>
       <use xlink:href="#ArialMT-2e" x="55.615234"/>
       <use xlink:href="#ArialMT-35" x="83.398438"/>
      </g>
     </g>
    </g>
    <g id="xtick_8">
     <g id="line2d_29">
      <g>
       <use xlink:href="#m4fe8be318d" x="298.443804" y="239.286154" style="fill: #262626; stroke: #262626; stroke-width: 0.8"/>
      </g>
     </g>
     <g id="text_18">
      <!-- 5.0 -->
      <g style="fill: #262626" transform="translate(288.713804 256.307091) scale(0.14 -0.14)">
       <use xlink:href="#ArialMT-35"/>
       <use xlink:href="#ArialMT-2e" x="55.615234"/>
       <use xlink:href="#ArialMT-30" x="83.398438"/>
      </g>
     </g>
    </g>
    <g id="xtick_9">
     <g id="line2d_30">
      <g>
       <use xlink:href="#m4fe8be318d" x="346.01501" y="239.286154" style="fill: #262626; stroke: #262626; stroke-width: 0.8"/>
      </g>
     </g>
     <g id="text_19">
      <!-- 7.5 -->
      <g style="fill: #262626" transform="translate(336.28501 256.307091) scale(0.14 -0.14)">
       <defs>
        <path id="ArialMT-37" d="M 303 3981 
L 303 4522 
L 3269 4522 
L 3269 4084 
Q 2831 3619 2401 2847 
Q 1972 2075 1738 1259 
Q 1569 684 1522 0 
L 944 0 
Q 953 541 1156 1306 
Q 1359 2072 1739 2783 
Q 2119 3494 2547 3981 
L 303 3981 
z
" transform="scale(0.015625)"/>
       </defs>
       <use xlink:href="#ArialMT-37"/>
       <use xlink:href="#ArialMT-2e" x="55.615234"/>
       <use xlink:href="#ArialMT-35" x="83.398438"/>
      </g>
     </g>
    </g>
    <g id="xtick_10">
     <g id="line2d_31">
      <g>
       <use xlink:href="#m4fe8be318d" x="393.586216" y="239.286154" style="fill: #262626; stroke: #262626; stroke-width: 0.8"/>
      </g>
     </g>
     <g id="text_20">
      <!-- 10.0 -->
      <g style="fill: #262626" transform="translate(379.963559 256.307091) scale(0.14 -0.14)">
       <use xlink:href="#ArialMT-31"/>
       <use xlink:href="#ArialMT-30" x="55.615234"/>
       <use xlink:href="#ArialMT-2e" x="111.230469"/>
       <use xlink:href="#ArialMT-30" x="139.013672"/>
      </g>
     </g>
    </g>
    <g id="xtick_11">
     <g id="line2d_32">
      <g>
       <use xlink:href="#m4fe8be318d" x="441.157421" y="239.286154" style="fill: #262626; stroke: #262626; stroke-width: 0.8"/>
      </g>
     </g>
     <g id="text_21">
      <!-- 12.5 -->
      <g style="fill: #262626" transform="translate(427.534765 256.307091) scale(0.14 -0.14)">
       <use xlink:href="#ArialMT-31"/>
       <use xlink:href="#ArialMT-32" x="55.615234"/>
       <use xlink:href="#ArialMT-2e" x="111.230469"/>
       <use xlink:href="#ArialMT-35" x="139.013672"/>
      </g>
     </g>
    </g>
    <g id="xtick_12">
     <g id="line2d_33">
      <g>
       <use xlink:href="#m4fe8be318d" x="488.728627" y="239.286154" style="fill: #262626; stroke: #262626; stroke-width: 0.8"/>
      </g>
     </g>
     <g id="text_22">
      <!-- 15.0 -->
      <g style="fill: #262626" transform="translate(475.105971 256.307091) scale(0.14 -0.14)">
       <use xlink:href="#ArialMT-31"/>
       <use xlink:href="#ArialMT-35" x="55.615234"/>
       <use xlink:href="#ArialMT-2e" x="111.230469"/>
       <use xlink:href="#ArialMT-30" x="139.013672"/>
      </g>
     </g>
    </g>
    <g id="xtick_13">
     <g id="line2d_34">
      <g>
       <use xlink:href="#m4fe8be318d" x="536.299833" y="239.286154" style="fill: #262626; stroke: #262626; stroke-width: 0.8"/>
      </g>
     </g>
     <g id="text_23">
      <!-- 17.5 -->
      <g style="fill: #262626" transform="translate(522.677177 256.307091) scale(0.14 -0.14)">
       <use xlink:href="#ArialMT-31"/>
       <use xlink:href="#ArialMT-37" x="55.615234"/>
       <use xlink:href="#ArialMT-2e" x="111.230469"/>
       <use xlink:href="#ArialMT-35" x="139.013672"/>
      </g>
     </g>
    </g>
    <g id="xtick_14">
     <g id="line2d_35">
      <g>
       <use xlink:href="#m4fe8be318d" x="583.871039" y="239.286154" style="fill: #262626; stroke: #262626; stroke-width: 0.8"/>
      </g>
     </g>
     <g id="text_24">
      <!-- 20.0 -->
      <g style="fill: #262626" transform="translate(570.248383 256.307091) scale(0.14 -0.14)">
       <use xlink:href="#ArialMT-32"/>
       <use xlink:href="#ArialMT-30" x="55.615234"/>
       <use xlink:href="#ArialMT-2e" x="111.230469"/>
       <use xlink:href="#ArialMT-30" x="139.013672"/>
      </g>
     </g>
    </g>
   </g>
   <g id="matplotlib.axis_4">
    <g id="ytick_11">
     <g id="line2d_36">
      <g>
       <use xlink:href="#me2fe5571c8" x="184.105938" y="230.167692" style="fill: #262626; stroke: #262626; stroke-width: 0.8"/>
      </g>
     </g>
     <g id="text_25">
      <!-- hypoxic burden (%min/h) -->
      <g style="fill: #262626" transform="translate(22.268125 235.263474) scale(0.14 -0.14)">
       <defs>
        <path id="ArialMT-79" d="M 397 -1278 
L 334 -750 
Q 519 -800 656 -800 
Q 844 -800 956 -737 
Q 1069 -675 1141 -563 
Q 1194 -478 1313 -144 
Q 1328 -97 1363 -6 
L 103 3319 
L 709 3319 
L 1400 1397 
Q 1534 1031 1641 628 
Q 1738 1016 1872 1384 
L 2581 3319 
L 3144 3319 
L 1881 -56 
Q 1678 -603 1566 -809 
Q 1416 -1088 1222 -1217 
Q 1028 -1347 759 -1347 
Q 597 -1347 397 -1278 
z
" transform="scale(0.015625)"/>
        <path id="ArialMT-63" d="M 2588 1216 
L 3141 1144 
Q 3050 572 2676 248 
Q 2303 -75 1759 -75 
Q 1078 -75 664 370 
Q 250 816 250 1647 
Q 250 2184 428 2587 
Q 606 2991 970 3192 
Q 1334 3394 1763 3394 
Q 2303 3394 2647 3120 
Q 2991 2847 3088 2344 
L 2541 2259 
Q 2463 2594 2264 2762 
Q 2066 2931 1784 2931 
Q 1359 2931 1093 2626 
Q 828 2322 828 1663 
Q 828 994 1084 691 
Q 1341 388 1753 388 
Q 2084 388 2306 591 
Q 2528 794 2588 1216 
z
" transform="scale(0.015625)"/>
        <path id="ArialMT-62" d="M 941 0 
L 419 0 
L 419 4581 
L 981 4581 
L 981 2947 
Q 1338 3394 1891 3394 
Q 2197 3394 2470 3270 
Q 2744 3147 2920 2923 
Q 3097 2700 3197 2384 
Q 3297 2069 3297 1709 
Q 3297 856 2875 390 
Q 2453 -75 1863 -75 
Q 1275 -75 941 416 
L 941 0 
z
M 934 1684 
Q 934 1088 1097 822 
Q 1363 388 1816 388 
Q 2184 388 2453 708 
Q 2722 1028 2722 1663 
Q 2722 2313 2464 2622 
Q 2206 2931 1841 2931 
Q 1472 2931 1203 2611 
Q 934 2291 934 1684 
z
" transform="scale(0.015625)"/>
       </defs>
       <use xlink:href="#ArialMT-68"/>
       <use xlink:href="#ArialMT-79" x="55.615234"/>
       <use xlink:href="#ArialMT-70" x="105.615234"/>
       <use xlink:href="#ArialMT-6f" x="161.230469"/>
       <use xlink:href="#ArialMT-78" x="216.845703"/>
       <use xlink:href="#ArialMT-69" x="266.845703"/>
       <use xlink:href="#ArialMT-63" x="289.0625"/>
       <use xlink:href="#ArialMT-20" x="339.0625"/>
       <use xlink:href="#ArialMT-62" x="366.845703"/>
       <use xlink:href="#ArialMT-75" x="422.460938"/>
       <use xlink:href="#ArialMT-72" x="478.076172"/>
       <use xlink:href="#ArialMT-64" x="511.376953"/>
       <use xlink:href="#ArialMT-65" x="566.992188"/>
       <use xlink:href="#ArialMT-6e" x="622.607422"/>
       <use xlink:href="#ArialMT-20" x="678.222656"/>
       <use xlink:href="#ArialMT-28" x="706.005859"/>
       <use xlink:href="#ArialMT-25" x="739.306641"/>
       <use xlink:href="#ArialMT-6d" x="828.222656"/>
       <use xlink:href="#ArialMT-69" x="911.523438"/>
       <use xlink:href="#ArialMT-6e" x="933.740234"/>
       <use xlink:href="#ArialMT-2f" x="989.355469"/>
       <use xlink:href="#ArialMT-68" x="1017.138672"/>
       <use xlink:href="#ArialMT-29" x="1072.753906"/>
      </g>
     </g>
    </g>
   </g>
   <g id="PathCollection_21">
    <g clip-path="url(#pb770c38665)">
     <use xlink:href="#ma038021cb6" x="424.109578" y="230.167692" style="fill-opacity: 0.3; stroke: #000000; stroke-opacity: 0.3"/>
    </g>
   </g>
   <g id="PathCollection_22">
    <g clip-path="url(#pb770c38665)">
     <use xlink:href="#mc4a6f96d08" x="424.109578" y="230.167692" style="stroke: #000000"/>
    </g>
   </g>
   <g id="line2d_37">
    <path d="M 301.014258 230.167692 
L 587.210483 230.167692 
" clip-path="url(#pb770c38665)" style="fill: none; stroke: #000000; stroke-linecap: round"/>
   </g>
   <g id="line2d_38">
    <path d="M 203.301392 239.286154 
L 203.301392 221.049231 
" clip-path="url(#pb770c38665)" style="fill: none; stroke-dasharray: 5.55,2.4; stroke-dashoffset: 0; stroke: #000000; stroke-width: 1.5"/>
   </g>
   <g id="patch_6">
    <path d="M 184.105938 239.286154 
L 184.105938 221.049231 
" style="fill: none; stroke: #262626; stroke-width: 0.8; stroke-linejoin: miter; stroke-linecap: square"/>
   </g>
   <g id="patch_7">
    <path d="M 184.105938 239.286154 
L 606.405937 239.286154 
" style="fill: none; stroke: #262626; stroke-width: 0.8; stroke-linejoin: miter; stroke-linecap: square"/>
   </g>
  </g>
  <g id="axes_3">
   <g id="patch_8">
    <path d="M 184.105938 310.84 
L 606.405937 310.84 
L 606.405937 274.366154 
L 184.105938 274.366154 
z
" style="fill: #ffffff"/>
   </g>
   <g id="matplotlib.axis_5">
    <g id="xtick_15">
     <g id="line2d_39">
      <g>
       <use xlink:href="#m4fe8be318d" x="189.483446" y="310.84" style="fill: #262626; stroke: #262626; stroke-width: 0.8"/>
      </g>
     </g>
     <g id="text_26">
      <!-- −8 -->
      <g style="fill: #262626" transform="translate(181.502352 327.860937) scale(0.14 -0.14)">
       <defs>
        <path id="ArialMT-38" d="M 1131 2484 
Q 781 2613 612 2850 
Q 444 3088 444 3419 
Q 444 3919 803 4259 
Q 1163 4600 1759 4600 
Q 2359 4600 2725 4251 
Q 3091 3903 3091 3403 
Q 3091 3084 2923 2848 
Q 2756 2613 2416 2484 
Q 2838 2347 3058 2040 
Q 3278 1734 3278 1309 
Q 3278 722 2862 322 
Q 2447 -78 1769 -78 
Q 1091 -78 675 323 
Q 259 725 259 1325 
Q 259 1772 486 2073 
Q 713 2375 1131 2484 
z
M 1019 3438 
Q 1019 3113 1228 2906 
Q 1438 2700 1772 2700 
Q 2097 2700 2305 2904 
Q 2513 3109 2513 3406 
Q 2513 3716 2298 3927 
Q 2084 4138 1766 4138 
Q 1444 4138 1231 3931 
Q 1019 3725 1019 3438 
z
M 838 1322 
Q 838 1081 952 856 
Q 1066 631 1291 507 
Q 1516 384 1775 384 
Q 2178 384 2440 643 
Q 2703 903 2703 1303 
Q 2703 1709 2433 1975 
Q 2163 2241 1756 2241 
Q 1359 2241 1098 1978 
Q 838 1716 838 1322 
z
" transform="scale(0.015625)"/>
       </defs>
       <use xlink:href="#ArialMT-2212"/>
       <use xlink:href="#ArialMT-38" x="58.398438"/>
      </g>
     </g>
    </g>
    <g id="xtick_16">
     <g id="line2d_40">
      <g>
       <use xlink:href="#m4fe8be318d" x="240.344249" y="310.84" style="fill: #262626; stroke: #262626; stroke-width: 0.8"/>
      </g>
     </g>
     <g id="text_27">
      <!-- −6 -->
      <g style="fill: #262626" transform="translate(232.363155 327.860937) scale(0.14 -0.14)">
       <use xlink:href="#ArialMT-2212"/>
       <use xlink:href="#ArialMT-36" x="58.398438"/>
      </g>
     </g>
    </g>
    <g id="xtick_17">
     <g id="line2d_41">
      <g>
       <use xlink:href="#m4fe8be318d" x="291.205052" y="310.84" style="fill: #262626; stroke: #262626; stroke-width: 0.8"/>
      </g>
     </g>
     <g id="text_28">
      <!-- −4 -->
      <g style="fill: #262626" transform="translate(283.223958 327.860937) scale(0.14 -0.14)">
       <use xlink:href="#ArialMT-2212"/>
       <use xlink:href="#ArialMT-34" x="58.398438"/>
      </g>
     </g>
    </g>
    <g id="xtick_18">
     <g id="line2d_42">
      <g>
       <use xlink:href="#m4fe8be318d" x="342.065855" y="310.84" style="fill: #262626; stroke: #262626; stroke-width: 0.8"/>
      </g>
     </g>
     <g id="text_29">
      <!-- −2 -->
      <g style="fill: #262626" transform="translate(334.084761 327.860937) scale(0.14 -0.14)">
       <use xlink:href="#ArialMT-2212"/>
       <use xlink:href="#ArialMT-32" x="58.398438"/>
      </g>
     </g>
    </g>
    <g id="xtick_19">
     <g id="line2d_43">
      <g>
       <use xlink:href="#m4fe8be318d" x="392.926658" y="310.84" style="fill: #262626; stroke: #262626; stroke-width: 0.8"/>
      </g>
     </g>
     <g id="text_30">
      <!-- 0 -->
      <g style="fill: #262626" transform="translate(389.034002 327.860937) scale(0.14 -0.14)">
       <use xlink:href="#ArialMT-30"/>
      </g>
     </g>
    </g>
    <g id="xtick_20">
     <g id="line2d_44">
      <g>
       <use xlink:href="#m4fe8be318d" x="443.787461" y="310.84" style="fill: #262626; stroke: #262626; stroke-width: 0.8"/>
      </g>
     </g>
     <g id="text_31">
      <!-- 2 -->
      <g style="fill: #262626" transform="translate(439.894805 327.860937) scale(0.14 -0.14)">
       <use xlink:href="#ArialMT-32"/>
      </g>
     </g>
    </g>
    <g id="xtick_21">
     <g id="line2d_45">
      <g>
       <use xlink:href="#m4fe8be318d" x="494.648264" y="310.84" style="fill: #262626; stroke: #262626; stroke-width: 0.8"/>
      </g>
     </g>
     <g id="text_32">
      <!-- 4 -->
      <g style="fill: #262626" transform="translate(490.755608 327.860937) scale(0.14 -0.14)">
       <use xlink:href="#ArialMT-34"/>
      </g>
     </g>
    </g>
    <g id="xtick_22">
     <g id="line2d_46">
      <g>
       <use xlink:href="#m4fe8be318d" x="545.509067" y="310.84" style="fill: #262626; stroke: #262626; stroke-width: 0.8"/>
      </g>
     </g>
     <g id="text_33">
      <!-- 6 -->
      <g style="fill: #262626" transform="translate(541.616411 327.860937) scale(0.14 -0.14)">
       <use xlink:href="#ArialMT-36"/>
      </g>
     </g>
    </g>
    <g id="xtick_23">
     <g id="line2d_47">
      <g>
       <use xlink:href="#m4fe8be318d" x="596.36987" y="310.84" style="fill: #262626; stroke: #262626; stroke-width: 0.8"/>
      </g>
     </g>
     <g id="text_34">
      <!-- 8 -->
      <g style="fill: #262626" transform="translate(592.477214 327.860937) scale(0.14 -0.14)">
       <use xlink:href="#ArialMT-38"/>
      </g>
     </g>
    </g>
    <g id="text_35">
     <!-- effect of having AFib -->
     <g style="fill: #262626" transform="translate(331.954062 344.835) scale(0.14 -0.14)">
      <defs>
       <path id="ArialMT-66" d="M 556 0 
L 556 2881 
L 59 2881 
L 59 3319 
L 556 3319 
L 556 3672 
Q 556 4006 616 4169 
Q 697 4388 901 4523 
Q 1106 4659 1475 4659 
Q 1713 4659 2000 4603 
L 1916 4113 
Q 1741 4144 1584 4144 
Q 1328 4144 1222 4034 
Q 1116 3925 1116 3625 
L 1116 3319 
L 1763 3319 
L 1763 2881 
L 1116 2881 
L 1116 0 
L 556 0 
z
" transform="scale(0.015625)"/>
       <path id="ArialMT-74" d="M 1650 503 
L 1731 6 
Q 1494 -44 1306 -44 
Q 1000 -44 831 53 
Q 663 150 594 308 
Q 525 466 525 972 
L 525 2881 
L 113 2881 
L 113 3319 
L 525 3319 
L 525 4141 
L 1084 4478 
L 1084 3319 
L 1650 3319 
L 1650 2881 
L 1084 2881 
L 1084 941 
Q 1084 700 1114 631 
Q 1144 563 1211 522 
Q 1278 481 1403 481 
Q 1497 481 1650 503 
z
" transform="scale(0.015625)"/>
       <path id="ArialMT-46" d="M 525 0 
L 525 4581 
L 3616 4581 
L 3616 4041 
L 1131 4041 
L 1131 2622 
L 3281 2622 
L 3281 2081 
L 1131 2081 
L 1131 0 
L 525 0 
z
" transform="scale(0.015625)"/>
      </defs>
      <use xlink:href="#ArialMT-65"/>
      <use xlink:href="#ArialMT-66" x="55.615234"/>
      <use xlink:href="#ArialMT-66" x="81.648438"/>
      <use xlink:href="#ArialMT-65" x="109.431641"/>
      <use xlink:href="#ArialMT-63" x="165.046875"/>
      <use xlink:href="#ArialMT-74" x="215.046875"/>
      <use xlink:href="#ArialMT-20" x="242.830078"/>
      <use xlink:href="#ArialMT-6f" x="270.613281"/>
      <use xlink:href="#ArialMT-66" x="326.228516"/>
      <use xlink:href="#ArialMT-20" x="354.011719"/>
      <use xlink:href="#ArialMT-68" x="381.794922"/>
      <use xlink:href="#ArialMT-61" x="437.410156"/>
      <use xlink:href="#ArialMT-76" x="493.025391"/>
      <use xlink:href="#ArialMT-69" x="543.025391"/>
      <use xlink:href="#ArialMT-6e" x="565.242188"/>
      <use xlink:href="#ArialMT-67" x="620.857422"/>
      <use xlink:href="#ArialMT-20" x="676.472656"/>
      <use xlink:href="#ArialMT-41" x="698.755859"/>
      <use xlink:href="#ArialMT-46" x="765.455078"/>
      <use xlink:href="#ArialMT-69" x="826.539062"/>
      <use xlink:href="#ArialMT-62" x="848.755859"/>
     </g>
    </g>
   </g>
   <g id="matplotlib.axis_6">
    <g id="ytick_12">
     <g id="line2d_48">
      <g>
       <use xlink:href="#me2fe5571c8" x="184.105938" y="283.484615" style="fill: #262626; stroke: #262626; stroke-width: 0.8"/>
      </g>
     </g>
     <g id="text_36">
      <!-- N1 to W transition prob (%) -->
      <g style="fill: #262626" transform="translate(8.28125 288.580397) scale(0.14 -0.14)">
       <use xlink:href="#ArialMT-4e"/>
       <use xlink:href="#ArialMT-31" x="72.216797"/>
       <use xlink:href="#ArialMT-20" x="127.832031"/>
       <use xlink:href="#ArialMT-74" x="155.615234"/>
       <use xlink:href="#ArialMT-6f" x="183.398438"/>
       <use xlink:href="#ArialMT-20" x="239.013672"/>
       <use xlink:href="#ArialMT-57" x="266.796875"/>
       <use xlink:href="#ArialMT-20" x="361.181641"/>
       <use xlink:href="#ArialMT-74" x="388.964844"/>
       <use xlink:href="#ArialMT-72" x="416.748047"/>
       <use xlink:href="#ArialMT-61" x="450.048828"/>
       <use xlink:href="#ArialMT-6e" x="505.664062"/>
       <use xlink:href="#ArialMT-73" x="561.279297"/>
       <use xlink:href="#ArialMT-69" x="611.279297"/>
       <use xlink:href="#ArialMT-74" x="633.496094"/>
       <use xlink:href="#ArialMT-69" x="661.279297"/>
       <use xlink:href="#ArialMT-6f" x="683.496094"/>
       <use xlink:href="#ArialMT-6e" x="739.111328"/>
       <use xlink:href="#ArialMT-20" x="794.726562"/>
       <use xlink:href="#ArialMT-70" x="822.509766"/>
       <use xlink:href="#ArialMT-72" x="878.125"/>
       <use xlink:href="#ArialMT-6f" x="911.425781"/>
       <use xlink:href="#ArialMT-62" x="967.041016"/>
       <use xlink:href="#ArialMT-20" x="1022.65625"/>
       <use xlink:href="#ArialMT-28" x="1050.439453"/>
       <use xlink:href="#ArialMT-25" x="1083.740234"/>
       <use xlink:href="#ArialMT-29" x="1172.65625"/>
      </g>
     </g>
    </g>
    <g id="ytick_13">
     <g id="line2d_49">
      <g>
       <use xlink:href="#me2fe5571c8" x="184.105938" y="301.721538" style="fill: #262626; stroke: #262626; stroke-width: 0.8"/>
      </g>
     </g>
     <g id="text_37">
      <!-- N1 to N1 transition prob (%) -->
      <g style="fill: #262626" transform="translate(3.6 306.81732) scale(0.14 -0.14)">
       <use xlink:href="#ArialMT-4e"/>
       <use xlink:href="#ArialMT-31" x="72.216797"/>
       <use xlink:href="#ArialMT-20" x="127.832031"/>
       <use xlink:href="#ArialMT-74" x="155.615234"/>
       <use xlink:href="#ArialMT-6f" x="183.398438"/>
       <use xlink:href="#ArialMT-20" x="239.013672"/>
       <use xlink:href="#ArialMT-4e" x="266.796875"/>
       <use xlink:href="#ArialMT-31" x="339.013672"/>
       <use xlink:href="#ArialMT-20" x="394.628906"/>
       <use xlink:href="#ArialMT-74" x="422.412109"/>
       <use xlink:href="#ArialMT-72" x="450.195312"/>
       <use xlink:href="#ArialMT-61" x="483.496094"/>
       <use xlink:href="#ArialMT-6e" x="539.111328"/>
       <use xlink:href="#ArialMT-73" x="594.726562"/>
       <use xlink:href="#ArialMT-69" x="644.726562"/>
       <use xlink:href="#ArialMT-74" x="666.943359"/>
       <use xlink:href="#ArialMT-69" x="694.726562"/>
       <use xlink:href="#ArialMT-6f" x="716.943359"/>
       <use xlink:href="#ArialMT-6e" x="772.558594"/>
       <use xlink:href="#ArialMT-20" x="828.173828"/>
       <use xlink:href="#ArialMT-70" x="855.957031"/>
       <use xlink:href="#ArialMT-72" x="911.572266"/>
       <use xlink:href="#ArialMT-6f" x="944.873047"/>
       <use xlink:href="#ArialMT-62" x="1000.488281"/>
       <use xlink:href="#ArialMT-20" x="1056.103516"/>
       <use xlink:href="#ArialMT-28" x="1083.886719"/>
       <use xlink:href="#ArialMT-25" x="1117.1875"/>
       <use xlink:href="#ArialMT-29" x="1206.103516"/>
      </g>
     </g>
    </g>
   </g>
   <g id="PathCollection_23">
    <g clip-path="url(#p3dd03452cd)">
     <use xlink:href="#ma038021cb6" x="496.036177" y="283.484615" style="fill-opacity: 0.3; stroke: #000000; stroke-opacity: 0.3"/>
    </g>
   </g>
   <g id="PathCollection_24">
    <g clip-path="url(#p3dd03452cd)">
     <use xlink:href="#mc4a6f96d08" x="496.036177" y="283.484615" style="stroke: #000000"/>
    </g>
   </g>
   <g id="PathCollection_25">
    <g clip-path="url(#p3dd03452cd)">
     <use xlink:href="#ma038021cb6" x="277.850176" y="301.721538" style="fill-opacity: 0.3; stroke: #000000; stroke-opacity: 0.3"/>
    </g>
   </g>
   <g id="PathCollection_26">
    <g clip-path="url(#p3dd03452cd)">
     <use xlink:href="#mc4a6f96d08" x="277.850176" y="301.721538" style="stroke: #000000"/>
    </g>
   </g>
   <g id="line2d_50">
    <path d="M 435.485007 283.484615 
L 587.210483 283.484615 
" clip-path="url(#p3dd03452cd)" style="fill: none; stroke: #000000; stroke-linecap: round"/>
   </g>
   <g id="line2d_51">
    <path d="M 203.301392 301.721538 
L 353.232288 301.721538 
" clip-path="url(#p3dd03452cd)" style="fill: none; stroke: #000000; stroke-linecap: round"/>
   </g>
   <g id="line2d_52">
    <path d="M 392.926658 310.84 
L 392.926658 274.366154 
" clip-path="url(#p3dd03452cd)" style="fill: none; stroke-dasharray: 5.55,2.4; stroke-dashoffset: 0; stroke: #000000; stroke-width: 1.5"/>
   </g>
   <g id="patch_9">
    <path d="M 184.105938 310.84 
L 184.105938 274.366154 
" style="fill: none; stroke: #262626; stroke-width: 0.8; stroke-linejoin: miter; stroke-linecap: square"/>
   </g>
   <g id="patch_10">
    <path d="M 184.105938 310.84 
L 606.405937 310.84 
" style="fill: none; stroke: #262626; stroke-width: 0.8; stroke-linejoin: miter; stroke-linecap: square"/>
   </g>
  </g>
 </g>
 <defs>
  <clipPath id="p3e43ace29a">
   <rect x="184.105938" y="3.6" width="422.3" height="182.369231"/>
  </clipPath>
  <clipPath id="pb770c38665">
   <rect x="184.105938" y="221.049231" width="422.3" height="18.236923"/>
  </clipPath>
  <clipPath id="p3dd03452cd">
   <rect x="184.105938" y="274.366154" width="422.3" height="36.473846"/>
  </clipPath>
 </defs>
</svg>
